<mxfile host="app.diagrams.net" agent="Mozilla/5.0 (Windows NT 10.0; Win64; x64) AppleWebKit/537.36 (KHTML, like Gecko) Chrome/136.0.0.0 Safari/537.36 Edg/136.0.0.0" version="27.0.1">
  <diagram name="PÃ¡gina-1" id="UxmKPiRrAgPIFYmM5xPz">
    <mxGraphModel dx="1034" dy="570" grid="1" gridSize="10" guides="1" tooltips="1" connect="1" arrows="1" fold="1" page="1" pageScale="1" pageWidth="827" pageHeight="1169" math="0" shadow="0">
      <root>
        <mxCell id="0" />
        <mxCell id="1" parent="0" />
        <mxCell id="8kQV3mnOb-ZVvY2i_foA-1" value="" style="rounded=0;whiteSpace=wrap;html=1;rotation=-90;" vertex="1" parent="1">
          <mxGeometry x="137.5" y="120" width="150" height="80" as="geometry" />
        </mxCell>
        <mxCell id="8kQV3mnOb-ZVvY2i_foA-2" value="" style="rounded=0;whiteSpace=wrap;html=1;rotation=-90;" vertex="1" parent="1">
          <mxGeometry x="285" y="420" width="185" height="110" as="geometry" />
        </mxCell>
        <mxCell id="8kQV3mnOb-ZVvY2i_foA-3" value="" style="rounded=0;whiteSpace=wrap;html=1;rotation=90;" vertex="1" parent="1">
          <mxGeometry x="302.5" y="160" width="150" height="90" as="geometry" />
        </mxCell>
        <mxCell id="8kQV3mnOb-ZVvY2i_foA-4" value="" style="rounded=0;whiteSpace=wrap;html=1;rotation=-90;" vertex="1" parent="1">
          <mxGeometry x="182.5" y="320" width="120" height="70" as="geometry" />
        </mxCell>
        <mxCell id="8kQV3mnOb-ZVvY2i_foA-7" value="&lt;span style=&quot;background-color: light-dark(#ffffff, var(--ge-dark-color, #121212));&quot;&gt;&lt;font style=&quot;color: light-dark(rgb(0, 0, 0), rgb(204, 255, 255));&quot;&gt;&lt;span&gt;glasses:&lt;/span&gt;&lt;br&gt;&lt;br&gt;&lt;span&gt;brand&lt;/span&gt;&lt;/font&gt;&lt;/span&gt;&lt;div&gt;&lt;span style=&quot;background-color: light-dark(#ffffff, var(--ge-dark-color, #121212));&quot;&gt;&lt;font style=&quot;color: light-dark(rgb(0, 0, 0), rgb(204, 255, 255));&quot;&gt;graduation&lt;/font&gt;&lt;/span&gt;&lt;/div&gt;&lt;div&gt;&lt;span style=&quot;background-color: light-dark(#ffffff, var(--ge-dark-color, #121212));&quot;&gt;&lt;font style=&quot;color: light-dark(rgb(0, 0, 0), rgb(204, 255, 255));&quot;&gt;frame_type&lt;br&gt;frame_color&lt;/font&gt;&lt;/span&gt;&lt;/div&gt;&lt;div&gt;&lt;span style=&quot;background-color: light-dark(#ffffff, var(--ge-dark-color, #121212));&quot;&gt;&lt;font style=&quot;color: light-dark(rgb(0, 0, 0), rgb(204, 255, 255));&quot;&gt;glass_color&lt;br&gt;price&lt;/font&gt;&lt;/span&gt;&lt;/div&gt;&lt;div&gt;&lt;span style=&quot;background-color: light-dark(#ffffff, var(--ge-dark-color, #121212));&quot;&gt;&lt;font style=&quot;color: light-dark(rgb(0, 0, 0), rgb(204, 255, 255));&quot;&gt;provider_name&lt;/font&gt;&lt;/span&gt;&lt;/div&gt;" style="text;align=center;html=1;verticalAlign=middle;whiteSpace=wrap;rounded=0;" vertex="1" parent="1">
          <mxGeometry x="347.5" y="190" width="60" height="30" as="geometry" />
        </mxCell>
        <mxCell id="8kQV3mnOb-ZVvY2i_foA-9" value="&lt;div style=&quot;line-height: 100%;&quot;&gt;providers:&lt;br&gt;&lt;br&gt;&lt;p data-pm-slice=&quot;1 1 []&quot;&gt;name&lt;/p&gt;&lt;p&gt;address&lt;/p&gt;&lt;p&gt;telephone&lt;/p&gt;&lt;p&gt;fax&lt;/p&gt;&lt;p&gt;&lt;span style=&quot;background-color: transparent; color: light-dark(rgb(0, 0, 0), rgb(255, 255, 255));&quot;&gt;nif&lt;/span&gt;&lt;/p&gt;&lt;/div&gt;" style="text;strokeColor=none;align=center;fillColor=none;html=1;verticalAlign=middle;whiteSpace=wrap;rounded=0;" vertex="1" parent="1">
          <mxGeometry x="182.5" y="150" width="60" height="30" as="geometry" />
        </mxCell>
        <mxCell id="8kQV3mnOb-ZVvY2i_foA-10" value="&lt;p data-pm-slice=&quot;1 1 []&quot;&gt;employees:&lt;/p&gt;&lt;p&gt;&lt;/p&gt;&lt;p&gt;name&lt;/p&gt;" style="text;whiteSpace=wrap;html=1;align=center;" vertex="1" parent="1">
          <mxGeometry x="197.5" y="310" width="90" height="90" as="geometry" />
        </mxCell>
        <mxCell id="8kQV3mnOb-ZVvY2i_foA-11" value="&lt;p data-pm-slice=&quot;1 1 []&quot;&gt;clients&lt;/p&gt;&lt;p&gt;&lt;/p&gt;&lt;p&gt;name&lt;/p&gt;&lt;p&gt;address&lt;/p&gt;&lt;p&gt;telephone, email&lt;/p&gt;&lt;p&gt;register_date&lt;/p&gt;&lt;p&gt;recommended_by&lt;/p&gt;" style="text;whiteSpace=wrap;html=1;align=center;" vertex="1" parent="1">
          <mxGeometry x="312.5" y="380" width="130" height="190" as="geometry" />
        </mxCell>
        <mxCell id="8kQV3mnOb-ZVvY2i_foA-12" value="" style="rounded=0;whiteSpace=wrap;html=1;rotation=-90;" vertex="1" parent="1">
          <mxGeometry x="470" y="265" width="170" height="100" as="geometry" />
        </mxCell>
        <mxCell id="8kQV3mnOb-ZVvY2i_foA-13" value="&lt;p data-pm-slice=&quot;1 1 []&quot;&gt;sales&lt;/p&gt;&lt;p&gt;&lt;/p&gt;&lt;p&gt;client_name&lt;/p&gt;&lt;p&gt;employee_name&lt;/p&gt;&lt;p&gt;glasses_brand&lt;/p&gt;&lt;p&gt;date&lt;/p&gt;" style="text;whiteSpace=wrap;html=1;align=center;" vertex="1" parent="1">
          <mxGeometry x="495" y="240" width="120" height="170" as="geometry" />
        </mxCell>
        <mxCell id="8kQV3mnOb-ZVvY2i_foA-14" value="" style="endArrow=classic;html=1;rounded=0;exitX=0.5;exitY=1;exitDx=0;exitDy=0;" edge="1" parent="1" source="8kQV3mnOb-ZVvY2i_foA-1">
          <mxGeometry width="50" height="50" relative="1" as="geometry">
            <mxPoint x="270" y="200" as="sourcePoint" />
            <mxPoint x="330" y="160" as="targetPoint" />
          </mxGeometry>
        </mxCell>
        <mxCell id="8kQV3mnOb-ZVvY2i_foA-16" value="" style="endArrow=classic;html=1;rounded=0;exitX=0.048;exitY=0.006;exitDx=0;exitDy=0;exitPerimeter=0;entryX=1;entryY=0.75;entryDx=0;entryDy=0;" edge="1" parent="1" source="8kQV3mnOb-ZVvY2i_foA-3" target="8kQV3mnOb-ZVvY2i_foA-12">
          <mxGeometry width="50" height="50" relative="1" as="geometry">
            <mxPoint x="442.5" y="185" as="sourcePoint" />
            <mxPoint x="630" y="135" as="targetPoint" />
            <Array as="points">
              <mxPoint x="580" y="137" />
            </Array>
          </mxGeometry>
        </mxCell>
        <mxCell id="8kQV3mnOb-ZVvY2i_foA-17" value="" style="endArrow=classic;html=1;rounded=0;" edge="1" parent="1">
          <mxGeometry width="50" height="50" relative="1" as="geometry">
            <mxPoint x="430" y="520" as="sourcePoint" />
            <mxPoint x="598" y="410" as="targetPoint" />
            <Array as="points">
              <mxPoint x="598" y="520" />
            </Array>
          </mxGeometry>
        </mxCell>
        <mxCell id="8kQV3mnOb-ZVvY2i_foA-20" value="" style="endArrow=classic;startArrow=classic;html=1;rounded=0;" edge="1" parent="1">
          <mxGeometry width="50" height="50" relative="1" as="geometry">
            <mxPoint x="280" y="330" as="sourcePoint" />
            <mxPoint x="330" y="280" as="targetPoint" />
          </mxGeometry>
        </mxCell>
        <mxCell id="8kQV3mnOb-ZVvY2i_foA-21" value="" style="endArrow=classic;html=1;rounded=0;exitX=0.5;exitY=0;exitDx=0;exitDy=0;entryX=1;entryY=0.5;entryDx=0;entryDy=0;" edge="1" parent="1" source="8kQV3mnOb-ZVvY2i_foA-11" target="8kQV3mnOb-ZVvY2i_foA-3">
          <mxGeometry width="50" height="50" relative="1" as="geometry">
            <mxPoint x="340" y="320" as="sourcePoint" />
            <mxPoint x="407.5" y="350" as="targetPoint" />
          </mxGeometry>
        </mxCell>
        <mxCell id="8kQV3mnOb-ZVvY2i_foA-22" value="" style="endArrow=classic;html=1;rounded=0;entryX=0.972;entryY=0.196;entryDx=0;entryDy=0;entryPerimeter=0;exitX=0.042;exitY=0.353;exitDx=0;exitDy=0;exitPerimeter=0;" edge="1" parent="1" source="8kQV3mnOb-ZVvY2i_foA-13">
          <mxGeometry width="50" height="50" relative="1" as="geometry">
            <mxPoint x="498.64" y="327.76" as="sourcePoint" />
            <mxPoint x="442.4999999999999" y="420" as="targetPoint" />
          </mxGeometry>
        </mxCell>
        <mxCell id="8kQV3mnOb-ZVvY2i_foA-23" value="" style="endArrow=classic;html=1;rounded=0;entryX=1;entryY=0.75;entryDx=0;entryDy=0;" edge="1" parent="1" source="8kQV3mnOb-ZVvY2i_foA-11" target="8kQV3mnOb-ZVvY2i_foA-10">
          <mxGeometry width="50" height="50" relative="1" as="geometry">
            <mxPoint x="242.5" y="500" as="sourcePoint" />
            <mxPoint x="292.5" y="450" as="targetPoint" />
          </mxGeometry>
        </mxCell>
        <mxCell id="8kQV3mnOb-ZVvY2i_foA-24" value="" style="endArrow=classic;html=1;rounded=0;exitX=1;exitY=0.5;exitDx=0;exitDy=0;entryX=0;entryY=0.75;entryDx=0;entryDy=0;" edge="1" parent="1" source="8kQV3mnOb-ZVvY2i_foA-11" target="8kQV3mnOb-ZVvY2i_foA-13">
          <mxGeometry width="50" height="50" relative="1" as="geometry">
            <mxPoint x="469" y="500" as="sourcePoint" />
            <mxPoint x="469" y="400" as="targetPoint" />
          </mxGeometry>
        </mxCell>
      </root>
    </mxGraphModel>
  </diagram>
</mxfile>
